<?xml version="1.0" standalone="no"?>
<!DOCTYPE svg PUBLIC "-//W3C//DTD SVG 20010904//EN"
 "http://www.w3.org/TR/2001/REC-SVG-20010904/DTD/svg10.dtd">
<svg version="1.0" xmlns="http://www.w3.org/2000/svg"
 width="1077.000000pt" height="1077.000000pt" viewBox="0 0 1077.000000 1077.000000"
 preserveAspectRatio="xMidYMid meet">
<metadata>
Created by potrace 1.14, written by Peter Selinger 2001-2017
</metadata>
<g transform="translate(0.000000,1077.000000) scale(0.100000,-0.100000)"
fill="#000000" stroke="none">
<path d="M3999 8633 c-95 -109 -176 -200 -179 -203 -3 -3 -34 -39 -70 -80 -36
-41 -69 -80 -75 -86 -5 -6 -35 -39 -65 -74 -30 -35 -62 -71 -70 -79 -8 -9 -76
-86 -150 -171 -74 -85 -141 -161 -148 -169 -13 -14 -21 -8 -112 79 -37 36
-114 100 -120 100 -4 0 -36 -22 -72 -49 -36 -27 -70 -50 -74 -52 -5 -2 -76
-49 -159 -105 -82 -55 -233 -154 -335 -220 -172 -110 -511 -339 -548 -369 -10
-8 -62 -48 -117 -91 -371 -286 -656 -594 -887 -961 -217 -342 -379 -803 -424
-1205 -3 -29 -7 -64 -10 -78 -12 -74 -19 -288 -16 -550 1 -162 4 -401 5 -530
3 -361 -14 -509 -83 -703 -35 -101 -73 -174 -133 -260 -79 -113 -87 -127 -112
-200 -29 -88 -42 -189 -38 -294 3 -86 28 -259 42 -297 l10 -23 765 -1 c497 0
768 3 772 10 9 14 -25 98 -59 143 -77 102 -218 184 -457 265 -69 23 -137 49
-153 56 l-27 15 32 27 c90 77 248 162 496 267 257 109 386 189 505 314 l55 58
49 -46 c26 -25 91 -84 143 -130 52 -47 97 -87 100 -91 7 -8 145 -126 200 -172
180 -147 239 -194 340 -274 139 -109 350 -266 483 -358 l98 -68 745 0 c409 -1
746 1 748 3 7 8 -61 198 -94 262 -62 120 -173 231 -301 301 -86 47 -208 86
-288 93 -36 3 -67 6 -67 7 -1 0 -5 82 -8 181 -4 99 -8 191 -10 205 -3 14 -7
59 -10 100 -6 67 -15 149 -32 275 -8 64 -15 106 -28 175 -7 36 -12 78 -12 95
l1 30 350 1 c193 0 356 -2 362 -4 9 -3 10 -9 2 -24 -6 -11 -24 -65 -41 -120
-77 -260 -67 -516 29 -748 58 -139 147 -279 268 -420 63 -74 254 -254 352
-333 l102 -82 746 0 c410 0 745 3 745 6 0 22 -55 182 -82 237 -98 204 -296
357 -528 409 -8 2 -43 6 -77 9 -35 4 -63 7 -63 8 0 1 -13 60 -29 131 -40 176
-55 358 -38 445 3 14 8 43 12 65 15 79 116 265 145 265 5 0 19 -17 31 -37 41
-68 155 -215 260 -338 98 -114 488 -510 629 -640 187 -171 321 -289 485 -430
39 -33 72 -62 75 -65 3 -3 27 -23 53 -44 l49 -39 651 1 c359 1 655 1 659 2 10
0 1 140 -13 210 -26 126 -105 226 -222 281 -68 31 -183 63 -266 74 -78 10 -85
12 -138 35 -187 83 -394 341 -598 750 -63 126 -141 304 -201 457 -40 105 -134
386 -134 402 0 15 269 18 415 6 470 -39 997 -207 1560 -495 104 -53 211 -109
236 -123 l46 -26 49 40 c163 134 243 269 212 360 -11 33 -78 105 -146 158 -30
22 -52 41 -49 41 2 0 30 -11 60 -25 163 -72 325 -81 442 -26 123 57 225 191
288 381 37 110 39 103 -28 152 -265 195 -385 483 -339 813 46 337 -101 680
-393 915 -249 201 -550 317 -943 365 -60 7 -350 17 -350 11 0 -4 58 -42 85
-56 23 -12 235 -156 304 -208 279 -205 489 -419 571 -582 69 -137 81 -270 33
-375 -86 -191 -301 -331 -718 -470 -53 -18 -191 -56 -223 -61 -14 -3 -29 -7
-33 -10 -23 -14 -552 -114 -739 -139 -25 -3 -72 -10 -105 -15 -33 -5 -82 -12
-110 -15 -269 -31 -494 -90 -730 -190 -623 -266 -1267 -830 -1505 -1320 -27
-55 -56 -131 -66 -169 l-17 -68 -17 45 c-48 126 -43 277 17 477 27 91 33 107
96 245 35 76 98 194 158 294 179 301 639 889 990 1266 21 22 46 49 56 61 18
21 155 172 203 224 14 15 66 71 115 125 50 54 101 110 115 125 14 15 54 60 90
100 36 40 70 78 76 84 31 33 124 163 124 175 0 17 -28 10 -145 -36 -107 -42
-255 -118 -382 -197 -86 -53 -312 -211 -323 -225 -3 -4 -21 -18 -40 -31 -19
-14 -44 -32 -55 -41 -11 -9 -51 -43 -90 -75 -132 -110 -310 -267 -545 -484
-122 -113 -134 -123 -230 -210 -40 -36 -78 -70 -84 -75 -111 -103 -329 -275
-448 -352 -229 -149 -380 -184 -593 -139 -183 39 -374 154 -556 336 -198 200
-444 554 -672 970 -16 30 -38 66 -47 80 -9 14 -20 32 -24 40 -23 49 -54 99
-58 95 -2 -3 3 -67 13 -142 9 -76 20 -162 23 -191 6 -54 13 -106 21 -157 2
-16 7 -52 10 -80 4 -27 13 -90 20 -140 8 -49 17 -112 20 -140 3 -27 9 -63 12
-80 4 -16 7 -32 8 -35 1 -3 5 -32 9 -65 4 -32 10 -68 12 -79 2 -11 6 -38 9
-61 4 -22 15 -94 25 -160 11 -66 22 -138 25 -160 3 -22 10 -65 15 -95 5 -30
12 -69 15 -87 7 -40 54 -366 60 -415 5 -36 7 -53 19 -153 3 -22 7 -62 10 -90
3 -27 9 -81 13 -120 14 -130 8 -542 -10 -634 -9 -45 -18 -85 -21 -88 -3 -4
-317 235 -336 257 -3 3 -39 32 -80 65 -41 33 -86 69 -100 81 -14 12 -76 66
-139 119 -294 253 -578 540 -768 775 -199 248 -338 497 -404 727 -29 101 -34
146 -33 283 0 153 17 227 84 365 94 194 236 346 475 507 61 41 117 77 125 81
8 4 38 21 65 37 28 16 60 34 71 39 12 5 69 32 127 60 106 51 317 137 392 161
22 7 43 15 47 19 4 4 -17 25 -47 46 -31 22 -88 64 -128 93 -40 30 -91 66 -114
80 -23 15 -42 34 -42 42 0 16 344 958 353 967 3 3 76 -48 161 -113 86 -66 272
-206 413 -313 141 -107 294 -222 340 -257 45 -35 82 -62 82 -61 0 2 -33 117
-74 257 -41 140 -73 256 -71 258 2 2 179 -100 255 -148 14 -8 128 -76 205
-122 63 -37 107 -59 102 -51 -6 9 -181 480 -309 828 -38 105 -74 198 -79 208
-5 9 -8 17 -6 17 1 0 60 -22 130 -49 104 -40 127 -46 127 -32 0 9 -14 84 -31
166 -17 83 -33 164 -35 180 -3 17 -10 47 -15 69 -6 21 -9 40 -6 42 2 2 28 -26
58 -64 29 -37 59 -74 66 -82 7 -8 38 -46 69 -85 31 -38 71 -88 89 -110 18 -22
58 -71 90 -110 31 -38 61 -77 68 -85 7 -8 194 -240 416 -515 223 -275 413
-508 423 -519 21 -20 21 -29 2 114 -3 19 -7 58 -9 85 -6 59 -15 140 -20 175
-3 20 -16 147 -17 170 0 3 0 9 1 13 1 6 784 -578 966 -720 17 -13 35 -27 40
-31 180 -132 363 -270 373 -282 7 -8 12 -10 10 -4 -3 10 -69 86 -188 214 -23
25 -100 109 -235 258 -27 31 -59 65 -70 76 -11 12 -63 69 -115 126 -140 155
-165 182 -196 216 -16 17 -58 64 -94 104 -36 40 -83 92 -105 115 -22 24 -71
78 -110 121 -196 217 -231 254 -241 254 -5 0 -23 -16 -41 -36 -99 -112 -237
-254 -244 -252 -4 2 -69 80 -144 173 -75 94 -144 179 -153 190 -9 11 -154 191
-322 400 -167 209 -308 382 -312 383 -4 2 -8 10 -8 18 0 8 -4 14 -8 14 -4 0
-22 18 -39 40 l-31 41 -173 -198z"/>
</g>
</svg>
